<svg xmlns="http://www.w3.org/2000/svg" xml:space="preserve" width="2000" height="1500" data-id="lg_kzwzqRqN3TiyrP2aJ5" data-version="1"><path fill="#fff" stroke="transparent" d="M0 0h2000v1500H0z"/><g data-padding="20"><path fill="#105c1a" d="M389.205 1155.564q-8.348 0-18.898-3.006-10.55-3.034-22.04-6.631-11.462-3.597-22.844-5.208-7.893 7.41-14.738 10.55-6.818 3.14-12.16 3.14-6.738 0-11.383-3.945-4.617-3.946-6.952-10.094-2.309-6.147-2.309-12.644 0-6.738 2.416-12.75 2.443-6.04 7.543-9.88 5.1-3.811 12.993-3.811 1.638 0 3.49.241 1.852.215 3.946.671 4.403-13.449 7.758-29.797t5.342-32.133q1.96-15.758 1.96-27.355 0-4.644-.456-6.63-.457-1.96-1.611-4.054l-.242-.698q2.792-7.409 9.288-11.597 6.497-4.16 13.664-4.16 7.893 0 12.993 5.664 5.1 5.69 5.1 18.925 0 8.349-1.959 20.75t-5.45 26.684q-3.49 14.255-7.65 28.187-4.188 13.906-8.349 24.805 10.201 2.335 20.51 5.342 10.335 3.006 20.32 3.006 7.651 0 14.712-2.765 7.087-2.792 13.341-10.228 4.644 3.034 6.846 8.59t2.2 11.84q0 6.952-2.898 13.556-2.9 6.63-8.94 11.033-6.013 4.402-15.543 4.402m87.702 0q-16.94 0-28.08-6.845t-16.697-18.093-5.557-24.241q0-12.295 4.752-24.697 4.751-12.429 13.905-22.63 9.18-10.2 22.281-16.456 13.1-6.281 29.583-6.281 20.402 0 29.797 9.18 9.396 9.155 9.396 22.147 0 11.14-5.906 20.536-5.933 9.396-15.677 15.06-9.745 5.691-21.342 5.691-6.013 0-12.294-1.852-6.255-1.852-12.295-5.798 1.18 14.388 8.348 20.885 7.195 6.496 17.181 6.496 6.953 0 13.905-2.684 6.98-2.658 12.886-6.953t9.154-9.154l1.637 1.154q0 12.053-4.993 20.536-4.993 8.456-13.1 13.798-8.134 5.316-17.744 7.758-9.637 2.443-19.14 2.443m5.342-62.628q7.409 0 12.053-4.295t6.953-10.094q2.335-5.798 2.335-10.2 0-5.343-3.033-8.94-3.007-3.597-8.349-3.597-4.16 0-9.154 3.033-4.993 3.007-8.94 10.309t-5.1 20.294q7.436 3.49 13.235 3.49m87.433 62.628q-9.047-.456-15.65-6.389-6.605-5.906-9.155-20.75 11.114-3.49 22.147-13.1 11.006-9.638 21.798-22.282t21.234-24.697q-3.705-2.335-7.195-3.248-3.49-.94-6.496-.94-6.255 0-10.094 3.383-3.811 3.355-3.811 8.912 0 5.1 3.704 11.597-2.792.483-5.342.698-2.55.242-4.644.242-14.604 0-21.556-7.651-6.98-7.65-6.98-16.939 0-6.738 3.383-13.1 3.355-6.39 10.093-10.443 6.711-4.053 16.214-4.053 8.832 0 19.838 4.295 11.033 4.268 24.241 14.496 6.738-7.194 13.127-12.778 6.362-5.557 12.859-8.563 12.75 2.067 18.2 8.912 5.476 6.845 5.476 14.496 0 1.396-.134 2.55-.107 1.181-.349 2.336-14.147 5.798-24.24 15.409-10.094 9.637-18.657 21.126-8.59 11.49-18.792 23.301 4.161 3.49 8.108 4.993t7.194 1.504q6.255 0 10.2-4.295t3.947-10.094q0-1.852-.349-3.704t-1.503-3.705q2.791-.456 5.45-.805t5.207-.35q12.993 0 19.033 6.604t6.04 15.194q0 6.497-3.49 12.993t-10.2 10.657q-6.739 4.188-16.242 4.188-8.805 0-20.053-4.885-11.275-4.86-24.482-16.215-5.798 5.799-12.751 11.114-6.98 5.342-15.328 9.986m197.415-.456q-8.108 0-14.148-5.342t-6.04-17.395v-2.336q0-1.154.242-2.309-6.953 13.906-15.65 20.537-8.725 6.603-17.53 6.603-8.107 0-15.301-5.69-7.195-5.665-11.597-16.805t-4.403-26.926q0-16.214 4.51-28.992 4.537-12.75 11.946-21.556 7.436-8.832 16.241-13.342 8.805-4.536 17.154-4.536 9.288 0 16.724 5.69 7.409 5.692 10.2 17.987.699-3.947 1.048-7.195t.349-4.402q.214-6.282 6.362-9.289t13.583-3.006q6.497 0 12.295 2.55t7.892 8.564l.457 1.395q-2.792 6.282-5.584 15.087-2.765 8.805-5.1 18.442-2.31 9.638-3.705 18.792t-1.396 16.106q0 7.678 1.638 10.577 1.61 2.9 3.946 2.9 3.946 0 7.194-5.584l1.852.94q0 7.891-5.1 14.388-5.127 6.47-12.778 10.308t-15.301 3.839m-37.824-29.475q6.04 0 13.341-10.792 7.329-10.765 12.644-30.952l.94-4.053q.456-1.987.698-3.84-3.732-8.59-7.785-12.186t-8-3.598q-5.798 0-10.792 6.148-4.966 6.147-8.107 15.435t-3.14 18.55q0 12.778 2.899 19.033t7.302 6.255m145.927 29.233q-8.35 0-15.087-6.952t-6.738-22.98q0-12.992 3.033-25.502 3.007-12.536 6.846-25.395 3.812-12.885 6.496-26.683 2.658-13.798 1.718-29.127-6.255.94-12.268 3.249-6.04 2.335-11.838 6.738 0-14.604 2.55-23.785 2.55-9.154 9.96-13.341 7.435-4.161 22.039-4.161 7.892 0 17.637 1.154t20.08 2.309q10.308 1.18 19.596 1.18 9.047 0 16.24-1.744 7.168-1.745 11.115-6.39 4.644 3.034 7.086 8.242t2.443 11.248q0 6.255-2.899 12.187-2.9 5.906-8.94 9.745-6.04 3.812-15.784 3.812-10.2 0-22.254-3.248-12.08-3.248-24.831-5.557 1.154 5.1 1.745 10.2t.59 10.443q0 5.799-.483 11.49-.456 5.664-1.396 11.704 4.886-2.55 11.839-4.644t14.281-3.463q7.302-1.396 13.1-1.396 3.705 0 6.497.698 2.308 4.859 2.308 11.812 0 11.14-5.557 22.737l-1.637.698q-8.564-4.644-19.811-7.194-11.275-2.55-23.57-3.463-2.309 13.207-4.402 26.898t-2.094 28.08q0 3.006.134 6.254.107 3.248.349 6.497-7.65 7.65-18.093 7.65m182.543.242q-8.107 0-14.147-5.342-6.014-5.342-6.014-17.395v-2.336q0-1.154.215-2.309-6.953 13.906-15.65 20.537-8.698 6.603-17.503 6.603-8.134 0-15.328-5.69-7.194-5.665-11.597-16.805t-4.403-26.926q0-16.214 4.51-28.992 4.537-12.75 11.946-21.556 7.436-8.832 16.241-13.342 8.832-4.536 17.18-4.536 9.262 0 16.698 5.69 7.41 5.692 10.201 17.987.698-3.947 1.047-7.195t.349-4.402q.241-6.282 6.389-9.289t13.556-3.006q6.497 0 12.295 2.55t7.893 8.564l.456 1.395q-2.765 6.282-5.557 15.087t-5.1 18.442q-2.336 9.638-3.732 18.792-1.369 9.154-1.369 16.106 0 7.678 1.61 10.577 1.638 2.9 3.947 2.9 3.946 0 7.194-5.584l1.853.94q0 7.891-5.1 14.388-5.101 6.47-12.752 10.308t-15.328 3.839m-37.797-29.475q6.04 0 13.341-10.792 7.302-10.765 12.644-30.952.456-2.094.913-4.053.456-1.987.698-3.84-3.705-8.59-7.758-12.186-4.08-3.598-8-3.598-5.798 0-10.792 6.148t-8.133 15.435q-3.114 9.289-3.114 18.55 0 12.778 2.899 19.033t7.302 6.255m108.317 29.233q-8.348 0-14.845-6.845t-6.496-19.355q0-6.04 1.396-13.69t3.248-15.678q1.852-8 3.248-15.06 1.396-7.087 1.396-11.73 0-4.86-1.745-7.759t-4.51-2.9q-4.429 0-9.046 6.04l-1.396-.939q-.242-3.704 1.61-8.805t5.799-9.879q3.946-4.751 10.093-8t14.497-3.247q12.294 0 17.878 7.087 5.557 7.06 5.557 17.046 0 1.61-.108 3.355-.134 1.745-.348 3.383 8.348-15.087 17.502-23.086t17.046-8q7.436 0 10.9 5.798 3.49 5.799 3.49 13.906 0 7.436-2.9 15.086t-8.59 12.644q-5.665 4.993-13.798 4.752l-.913-.457q-.242-6.04-3.946-9.53-3.732-3.462-8.349-3.462-6.282 0-11.731 6.254t-5.45 18.094q0 7.194 1.638 15.543 1.61 8.348 1.61 14.147 0 6.952-3.247 12.75t-8.35 9.182q-5.1 3.355-11.14 3.355m104.157 0q-8.348 0-14.952-6.845t-6.604-18.899q0-6.04 1.61-13.798 1.638-7.785 3.598-15.892 1.96-8.134 3.597-15.328 1.61-7.168 1.61-12.053 0-3.946-1.851-6.39-1.853-2.415-4.86-2.415-3.945 0-8.59 4.644l-1.396-.94q-.214-3.704 1.638-8.805t6.013-9.879q4.188-4.751 10.926-8 6.711-3.247 16-3.247 10.442 0 15.65 7.301 5.208 7.329 5.208 17.53v2.443q0 1.261-.215 2.416 4.402-7.195 10.308-13.906 5.933-6.738 13.476-11.248 7.517-4.536 16.348-4.536 11.356 0 15.758 7.301 4.43 7.329 4.43 16.59 0 1.853-.135 3.597-.107 1.745-.349 3.383 4.886-7.194 10.792-14.281 5.906-7.06 13.583-11.839 7.65-4.751 17.61-4.751 12.295 0 16.832 7.194 4.51 7.194 4.51 16.939 0 8.59-2.067 19.596-2.094 11.034-4.188 21.69-2.094 10.685-2.094 18.094 0 4.403 1.289 7.194 1.261 2.792 4.295 2.792 2.55 0 4.751-1.503 2.201-1.53 3.114-3.597l1.88.698q0 8.563-4.886 15.06-4.86 6.496-12.295 10.093-7.41 3.597-14.845 3.597-9.047 0-15.892-6.04-6.846-6.013-6.846-19.945 0-8.59 2.202-18.55 2.2-9.986 4.402-19.382 2.228-9.395 2.228-15.408 0-8.59-6.04-8.59-4.402 0-8.697 3.596t-7.651 9.503q-3.383 5.933-5.45 12.43-2.094 6.469-2.094 12.51 0 5.583 1.262 12.187 1.289 6.603 1.289 12.643 0 12.054-6.738 18.55-6.711 6.496-15.758 6.496-8.349 0-14.98-5.557-6.603-5.583-6.603-16.724 0-5.1 1.396-12.402t3.14-15.301q1.719-8 3.115-15.436 1.396-7.409 1.396-12.993 0-4.402-1.262-6.952-1.289-2.55-4.993-2.55-5.342 0-10.201 5.341-4.886 5.342-8.376 12.859-3.463 7.543-4.617 14.496-.242 1.638-.349 2.55l-.134.94q0 7.194 1.637 13.1 1.611 5.933 1.611 12.187 0 11.356-6.845 18.899-6.819 7.543-15.65 7.543m209.226-125.042q-9.261 0-15.194-5.664-5.906-5.691-5.906-14.281 0-9.262 6.953-16 6.98-6.738 16.939-6.738 9.288 0 15.194 5.799 5.932 5.825 5.932 14.389 0 9.288-6.98 15.892-6.952 6.603-16.938 6.603m-16.214 125.042q-9.047 0-16.241-6.389-7.195-6.362-7.195-20.509 0-8.134 2.202-15.194 2.201-7.087 5.1-13.825 2.9-6.711 5.1-13.1 2.202-6.362 2.202-12.644 0-5.557-1.852-8t-4.403-2.442q-3.946 0-7.65 5.127l-1.638-.94q.94-9.288 5.933-15.892 4.966-6.603 12.294-10.308 7.302-3.731 14.496-3.731 8.805 0 15.302 5.69t6.496 18.443q0 7.65-2.201 16.133-2.201 8.457-5.1 16.805t-5.101 15.543-2.201 12.295q0 4.403 1.718 6.255 1.745 1.852 3.839 1.852t4.053-1.262q1.987-1.288 2.9-2.899l1.637.457q0 8.59-4.537 14.979-4.51 6.362-11.248 9.96t-13.905 3.596m72.131-.241q-8.59 0-15.543-6.846-6.953-6.818-6.953-19.113 0-6.04 1.611-13.69 1.638-7.651 3.597-15.544 1.987-7.892 3.597-14.845 1.638-6.953 1.638-11.382 0-4.644-1.852-7.302-1.88-2.657-4.886-2.657-3.946 0-8.59 4.644l-1.37-.94q-.241-3.704 1.611-8.805t5.691-9.879q3.812-4.751 9.852-8t14.389-3.247q12.295 0 18.2 7.087 5.906 7.06 5.906 17.287 0 3.705-.698 7.168 4.886-7.168 12.08-14.496 7.195-7.302 15.892-12.16 8.698-4.886 17.96-4.886 10.925 0 14.845 6.98 3.946 6.952 3.946 17.394 0 9.745-2.067 20.859-2.094 11.14-4.188 21.475-2.094 10.309-2.094 17.261 0 9.289 5.342 9.289 2.792 0 4.859-1.745 2.094-1.745 2.792-3.356l1.637.698q0 8.59-4.751 15.087-4.779 6.47-11.946 10.067-7.194 3.597-14.63 3.597-9.047 0-16-6.255t-6.952-20.402q0-8.349 2.2-18.093t4.296-18.791q2.067-9.047 2.067-14.845 0-3.49-1.262-5.45-1.288-1.986-4.536-1.986-5.316 0-11.705 4.885-6.389 4.86-10.899 12.993-4.536 8.107-4.536 17.852 0 6.255 1.503 12.053 1.53 5.798 1.53 12.536 0 12.51-6.496 19.006t-15.087 6.497m162.84 45.716q-11.356 0-18.792-6.738-7.409-6.738-7.409-19.006 0-13.234 9.261-31.086-1.61.456-3.248.698-1.61.215-3.248.215-13.45 0-22.603-11.704-9.154-11.732-9.154-32.59 0-18.791 7.302-33.18t18.657-22.495q11.382-8.134 23.676-8.134 8.564 0 15.543 4.295 6.953 4.295 11.356 13.798.241-2.309.241-4.161v-3.49q0-3.946 6.014-6.496 6.04-2.55 13.475-2.55 6.712 0 12.51 2.55t7.65 8.59l.484 1.396q-2.094 1.852-3.597 12.053t-3.597 28.294q-1.396 11.382-3.49 25.879t-5.691 29.233q-3.57 14.711-9.369 27.14-5.825 12.402-14.63 19.946t-21.342 7.543m-7.65-82.6q6.738 0 14.952-11.007 8.241-11.006 13.127-31.677-4.188-9.046-8.483-12.858-4.295-3.839-8.698-3.839-5.798 0-10.898 5.798t-8.242 14.738q-3.114 8.94-3.114 18.442 0 9.745 3.249 15.087 3.22 5.315 8.107 5.315m-2.792 55.917q7.892 0 16.133-15.435 8.242-15.409 11.49-43.488-17.637 23.891-24.482 36.777-6.846 12.858-6.846 18.2 0 3.946 3.705 3.946" font-family="Agbalumo" font-size="86.412"/><path fill="#138620" d="M1482.914 841.957v73.438h-8.12v3.691h8.12v2.688h-15.001v3.69h118.958v-3.69h-14.278v-2.702h8.12v-3.691h-8.12v-73.454a13.73 13.73 0 0 0 4.577-9.095c.561-7.279-4.783-13.598-5.02-13.879l-1.432-1.653-1.388 1.683q-5.92 7.176-5.093 14.056c.56 4.606 3.322 7.677 4.665 8.932v73.439H1529.6v-73.512a13.73 13.73 0 0 0 4.577-9.095c.561-7.28-4.798-13.599-5.02-13.88l-1.432-1.653-1.388 1.683q-5.935 7.19-5.108 14.056c.56 4.607 3.322 7.678 4.68 8.933v73.439h-39.303v-73.483a13.73 13.73 0 0 0 4.577-9.095c.56-7.28-4.799-13.599-5.02-13.88l-1.432-1.653-1.403 1.683q-5.92 7.176-5.094 14.056c.561 4.607 3.322 7.678 4.666 8.933m84.97-9.435q-.517-4.385 2.834-9.272c1.315 2.067 3.057 5.596 2.776 9.272a9.9 9.9 0 0 1-2.746 6.039 10.93 10.93 0 0 1-2.864-6.039m-42.995 0q-.502-4.385 2.82-9.272c1.33 2.067 3.071 5.596 2.791 9.272a9.9 9.9 0 0 1-2.761 6.039 11.07 11.07 0 0 1-2.85-6.039m44.013 86.565v2.687H1529.6v-2.702Zm-42.994 0v2.687h-39.288v-2.702ZM1484.7 823.25c1.314 2.067 3.071 5.58 2.776 9.257a9.9 9.9 0 0 1-2.746 6.054 10.93 10.93 0 0 1-2.85-5.995q-.531-4.429 2.82-9.33"/><path fill="#138620" d="m1487.566 858.702.31 1.89 1.89-.384c13.288-2.746 15.09-16.86 15.119-17.009l.324-2.79-2.701.812c-16.758 5.064-14.957 17.348-14.942 17.481m12.89-12.815c-1.064 3.204-3.559 7.972-9.17 10.054.4-2.613 2.186-7.057 9.17-10.04m2.066 12.518c-16.787 5.064-14.986 17.363-14.97 17.481l.294 1.89 1.905-.384c13.288-2.746 15.09-16.86 15.104-17.009l.34-2.805Zm-11.25 14.72c.413-2.613 2.2-7.057 9.183-10.04-1.078 3.19-3.558 7.973-9.183 10.04m11.25 2.482c-16.772 5.05-14.97 17.334-14.956 17.452l.31 1.92 1.89-.4c13.288-2.746 15.09-16.86 15.119-17.008l.324-2.806Zm-11.22 14.705c.413-2.613 2.2-7.042 9.124-10.04-1.093 3.19-3.588 7.973-9.14 10.04m-3.72 19.947.31 1.92 1.89-.399c13.288-2.746 15.09-16.861 15.119-17.009l.324-2.805-2.701.827c-16.758 5.064-14.957 17.348-14.942 17.466m3.72-2.746c.429-2.613 2.215-7.043 9.155-10.04-1.093 3.19-3.603 7.973-9.154 10.04m-11.621-47.305 1.875.383.31-1.89c.03-.132 1.816-12.402-14.942-17.48l-2.687-.813.325 2.806c.014.147 1.816 14.247 15.119 16.979m-1.521-4.267c-5.61-2.067-8.12-6.85-9.184-10.055 6.984 2.997 8.77 7.442 9.184 10.055m1.52 21.482 1.876.384.31-1.89c.03-.133 1.816-12.402-14.942-17.48l-2.687-.813.325 2.805c.014.133 1.816 14.248 15.119 16.98m-1.521-4.267c-5.61-2.067-8.12-6.851-9.184-10.055 6.984 2.997 8.77 7.426 9.184 10.055m1.521 21.469 1.875.383.31-1.89c.03-.132 1.816-12.402-14.942-17.48l-2.687-.813.325 2.806c.014.132 1.816 14.247 15.119 16.979m-1.521-4.267c-5.61-2.067-8.12-6.85-9.184-10.055 6.984 2.997 8.77 7.427 9.184 10.055m1.52 21.482 1.876.384.31-1.905c.03-.118 1.816-12.402-14.942-17.466l-2.687-.812.325 2.805c.014.133 1.816 14.248 15.119 16.98m-1.521-4.268c-5.61-2.067-8.12-6.85-9.184-10.054 6.984 2.997 8.77 7.426 9.184 10.054m52.4-48.826.296 1.89 1.89-.384c13.288-2.746 15.104-16.86 15.118-17.009l.325-2.79-2.687.812c-16.772 5.064-14.971 17.348-14.942 17.481m12.845-12.8c-1.077 3.189-3.587 7.972-9.124 10.04.413-2.614 2.2-7.043 9.14-10.04m2.111 12.517c-16.773 5.064-14.972 17.363-14.957 17.481l.31 1.89 1.89-.384c13.288-2.746 15.104-16.86 15.119-17.009l.325-2.805Zm-11.221 14.72c.413-2.613 2.2-7.042 9.139-10.04-1.093 3.19-3.603 7.973-9.154 10.04m11.206 2.498c-16.772 5.035-14.971 17.319-14.942 17.437l.296 1.92 1.89-.4c13.288-2.745 15.104-16.86 15.118-17.008l.325-2.805Zm-11.236 14.706c.414-2.629 2.185-7.058 9.169-10.055-1.063 3.204-3.558 7.973-9.169 10.055m-3.706 19.93.296 1.92 1.89-.399c13.288-2.746 15.104-16.861 15.118-17.009l.325-2.805-2.687.827c-16.772 5.064-14.971 17.348-14.942 17.466m3.706-2.746c.428-2.613 2.215-7.057 9.169-10.055-1.063 3.204-3.558 7.973-9.154 10.055m-11.604-47.305 1.89.383.296-1.89c.03-.132 1.83-12.402-14.942-17.48l-2.687-.813.325 2.806c.014.147 1.83 14.247 15.118 16.979m-1.52-4.267c-5.61-2.067-8.106-6.85-9.17-10.055 6.985 2.997 8.756 7.442 9.17 10.055m1.52 21.482 1.89.384.296-1.89c.03-.133 1.83-12.402-14.942-17.48l-2.687-.813.325 2.805c.014.133 1.83 14.248 15.118 16.98m-1.52-4.267c-5.61-2.067-8.106-6.851-9.17-10.055 6.985 2.997 8.756 7.426 9.17 10.055m1.52 21.469 1.89.383.296-1.89c.03-.132 1.83-12.402-14.942-17.48l-2.687-.813.325 2.806c.014.132 1.83 14.247 15.118 16.979m-1.52-4.267c-5.61-2.067-8.106-6.85-9.17-10.055 6.985 2.997 8.756 7.427 9.17 10.055m1.52 21.482 1.89.384.296-1.905c.03-.118 1.83-12.402-14.942-17.466l-2.687-.812.325 2.805c.014.133 1.83 14.248 15.118 16.98m-1.52-4.268c-5.61-2.067-8.106-6.85-9.17-10.054 6.985 2.997 8.756 7.426 9.17 10.054m52.398-48.826.295 1.89 1.89-.384c13.288-2.746 15.104-16.86 15.119-17.009l.324-2.79-2.687.812c-16.757 5.064-14.97 17.348-14.941 17.481m12.845-12.8c-1.078 3.189-3.588 7.972-9.125 10.04.414-2.614 2.215-7.043 9.14-10.04m-12.86 29.998.295 1.89 1.89-.384c13.288-2.746 15.104-16.86 15.119-17.009l.324-2.805-2.687.827c-16.757 5.064-14.97 17.363-14.941 17.481m3.72-2.776c.414-2.613 2.215-7.042 9.14-10.04-1.093 3.19-3.603 7.973-9.154 10.04m-3.706 19.949.295 1.92 1.89-.4c13.288-2.746 15.104-16.86 15.119-17.008l.324-2.806-2.687.827c-16.757 5.064-14.97 17.349-14.941 17.467m3.706-2.747c.413-2.628 2.185-7.057 9.183-10.054-1.078 3.204-3.573 7.973-9.183 10.054m-3.706 19.947.295 1.92 1.89-.399c13.288-2.746 15.104-16.861 15.119-17.009l.324-2.805-2.687.827c-16.757 5.064-14.97 17.348-14.941 17.466m3.706-2.746c.413-2.628 2.185-7.057 9.183-10.055-1.078 3.204-3.573 7.973-9.183 10.055m-11.592-47.305 1.89.383.295-1.89c.03-.132 1.831-12.402-14.927-17.48l-2.702-.813.34 2.806c0 .147 1.816 14.247 15.104 16.979m-1.52-4.267c-5.611-2.067-8.106-6.85-9.17-10.055 6.984 2.997 8.77 7.442 9.17 10.055m1.52 21.482 1.89.384.295-1.89c.03-.133 1.831-12.402-14.927-17.48l-2.702-.813.34 2.805c0 .133 1.816 14.248 15.104 16.98m-1.52-4.267c-5.611-2.067-8.106-6.851-9.17-10.055 6.984 2.997 8.77 7.426 9.17 10.055m1.52 21.469 1.89.383.295-1.89c.03-.132 1.831-12.402-14.927-17.48l-2.702-.813.34 2.806c0 .132 1.816 14.247 15.104 16.979m-1.52-4.267c-5.611-2.067-8.106-6.85-9.17-10.055 6.984 2.997 8.77 7.427 9.17 10.055m1.52 21.482 1.89.384.295-1.905c.03-.118 1.831-12.402-14.927-17.466l-2.702-.812.34 2.805c0 .133 1.816 14.248 15.104 16.98m-1.52-4.268c-5.611-2.067-8.106-6.85-9.17-10.054 6.984 2.997 8.77 7.426 9.17 10.054m-100.783 21.704h127.344v3.691H1463.35Zm4.562 6.834h118.972v3.69h-118.972Z"/><path fill="#0f1114" d="M1581.568 482.536a35.56 35.56 0 0 0-20.643-28.838l-8.736-5.411a204.9 204.9 0 0 0-117.283-30.307L1245.8 266.293a112.1 112.1 0 0 0-72.673-26.827H576.739q-16.158.155-29.379 7.731h-.464c-61.246.51-110.572 50.392-110.402 111.64v198.15l.155 1.547a117.515 117.515 0 0 0 19.173 139.162 117.515 117.515 0 0 0 19.174-139.162l.155-1.546V358.836c0-29.379 17.24-54.737 41.903-66.257q-.464 3.943-.541 8.041v139.549q0 21.647 5.798 42.676l26.132 93.625-41.285 125.633q-3.093 9.432-3.093 19.328V886.88a43.681 43.681 0 0 0 86.822 7.654l25.127-142.1 24.74-12.834 52.881 144.883a43.68 43.68 0 0 0 40.976 28.606h2.86a43.604 43.604 0 0 0 43.14-49.79l-17.163-117.67 48.011-69.194h194.982l-33.399 185.473a43.295 43.295 0 0 0 42.909 51.18h1.778a43.295 43.295 0 0 0 41.44-30.151l44.144-137.152 22.653 147.743a43.527 43.527 0 0 0 86.513-6.571V727.462l39.12-48.011h99.114a313.1 313.1 0 0 0 89.837 86.357l22.575 14.226c8.66 5.412 19.328 6.958 29.147 4.02l46.851-13.993a36.03 36.03 0 0 0 25.127-39.739l-6.263-39.507a417.5 417.5 0 0 1-1.855-118.674l1.392-11.056.154-2.164a54.1 54.1 0 0 0-8.504-31.39l15.694-10.9a35.56 35.56 0 0 0 16.7-34.018m-216.243 142.719h-126.638a27.06 27.06 0 0 0-20.951 9.973l-53.346 65.484a27.06 27.06 0 0 0-6.03 17.008v29.688l-6.649-43.063q-.85-5.875-4.175-10.823l-39.12-59.144a27.06 27.06 0 0 0-22.498-12.138h-329.35q-6.572 0-12.448 3.092l-164.83 85.044a27.06 27.06 0 0 0-14.225 19.328l-6.804 38.656v-47.006q0-1.237.387-2.474l43.759-133.364a27.06 27.06 0 0 0 .386-15.694L574.42 468.233q-3.866-13.839-3.866-28.142v-.077l19.483-48.32a55.67 55.67 0 0 1 38.037-33.09 55.665 55.665 0 0 0 42.136-53.732v-11.365h107l12.525 25.977c4.561 9.278 3.942 20.333-1.47 29.147a30.384 30.384 0 0 0 15 44.223l22.265 8.504a17.01 17.01 0 0 1 4.87 28.76 17.01 17.01 0 0 0-.618 25.281l28.838 26.828a17.01 17.01 0 0 0 20.951 1.778l47.548-31.157a47.934 47.934 0 0 0 13.53-66.798l-7.732-11.442a23.194 23.194 0 0 1 7.654-32.935l1.082-.619a23.19 23.19 0 0 1 25.823 1.624l30.306 23.194c23.194 17.781 56.206 14.07 74.838-8.273a54.12 54.12 0 0 0 3.634-64.092h96.795c13.762 0 27.214 5.026 37.729 14.148l.773.619 57.984 46.542-2.32 24.121a54.892 54.892 0 0 0 86.59 49.635l4.098-2.938 51.336 41.285a27.06 27.06 0 0 0 19.869 5.798c28.373-3.092 57.21 2.165 82.724 14.844l-21.338 14.844a27.06 27.06 0 0 0-2.242 42.677l15.076 12.988-.928 7.19a474.4 474.4 0 0 0 2.087 133.983l3.711 23.502-23.348 6.959-15.385-9.742a259 259 0 0 1-81.178-81.95 27.06 27.06 0 0 0-22.962-12.757m-657 117.514 5.798 39.97-24.895-68.266 46.542-23.967-22.884 32.935a27.06 27.06 0 0 0-4.639 19.328m343.731-14.534 9.355-51.877h7.345Z"/><path fill="#0f1114" d="M1470.16 597.19c6.649 2.01 13.762-1.7 15.85-8.35 2.01-6.571-3.866-6.571-10.515-8.659s-11.597-5.411-13.607 1.237c-2.088 6.65 1.623 13.685 8.272 15.772M752.083 473.182a81.95 81.95 0 0 0-78.162 17.472c-22.421 20.102-25.513 28.451-25.59 33.477q-.233 4.329 2.705 7.19c12.757 12.602 40.048 16.776 48.088 16.776h38.425a39.12 39.12 0 0 0 37.419-50.02 38.66 38.66 0 0 0-22.885-24.895m268.042 38.191a20.87 20.87 0 0 0-16.313 6.185 37.11 37.11 0 0 0-3.556 39.12c6.726 13.917 10.437 16.7 12.988 17.628q2.165.773 4.098 0c8.427-3.711 14.92-15.54 16.235-19.251l6.03-17.705a18.56 18.56 0 0 0-3.556-17.936c-3.865-4.639-9.664-7.654-15.926-8.04m181.065-89.606a30.93 30.93 0 0 0-13.143-20.179l-36.8-24.43a30.693 30.693 0 0 0-41.981 8.117l-38.27 55.665a30.152 30.152 0 0 0 10.979 43.836l33.244 17.396q6.726 3.479 14.148 3.479l2.783-.077 49.248-4.562a30.15 30.15 0 0 0 27.214-35.1Z"/><path d="M765.03 1226.3v.886q-.081 3.838-.806 7.972-.698 4.134-1.986 8.269t-3.087 8.187q-1.772 4.027-4 7.731t-4.806 6.926q-2.577 3.248-5.422 5.718l-6.845-3.946q1.61-2.711 2.926-5.906 1.288-3.194 2.362-6.684 1.047-3.49 1.798-7.14.779-3.678 1.262-7.302.51-3.625.779-7.141.241-3.517.241-6.684 0-2.497-.027-5.638t-.349-6.389q-.349-3.275-1.127-6.362-.779-3.114-2.335-5.53-1.53-2.443-3.947-3.92t-5.986-1.476q-3.168 0-5.45 1.1-2.254 1.075-3.838 2.873-1.584 1.826-2.55 4.215-.94 2.39-1.45 5.02-.537 2.657-.698 5.342t-.161 5.074v12.804h19.784v7.57h-19.784v16.08H701.3v-33.609q0-7.221 2.31-13.422 2.28-6.201 6.495-10.765 4.188-4.563 10.094-7.167 5.906-2.577 13.154-2.577 4.912 0 9.208 1.395t7.838 3.84q3.517 2.469 6.309 5.851 2.765 3.356 4.644 7.356 1.852 4 2.818 8.456t.86 8.993m25.663-29.69v61.34h-15.516v-77.474h5.986Zm45.528 29.1-8.778 32.24h-13.96l-14.522-53.045h15.516l9.1 37.206 7.57-37.206h13.96l9.288 38.2 8.94-38.2h10.764l-16.08 53.044h-13.96Zm98.574-20.805v53.044h-15.517v-6.335q-2.765 3.758-6.63 5.584-3.893 1.798-8.537 1.798-6.04 0-10.818-2.147-4.779-2.175-8.08-5.906t-5.047-8.805q-1.745-5.047-1.745-10.818 0-5.799 1.745-10.846t5.047-8.805q3.301-3.731 8.08-5.879 4.778-2.174 10.818-2.174 3.087 0 5.88.913 2.764.94 5.073 2.604 2.335 1.69 4.107 4.053 1.745 2.363 2.765 5.262l6.899-11.543Zm-15.624 26.415q0-2.067-.188-4.376-.215-2.282-.725-4.537t-1.396-4.295-2.281-3.624q-1.423-1.584-3.383-2.496-1.986-.94-4.59-.94-2.631 0-4.564.94-1.906.966-3.302 2.55-1.369 1.584-2.255 3.65-.912 2.04-1.422 4.296-.484 2.255-.698 4.536-.215 2.255-.215 4.296 0 2.013.215 4.322.214 2.281.698 4.536.51 2.255 1.422 4.322.886 2.067 2.255 3.651 1.396 1.584 3.302 2.524 1.933.94 4.564.94 2.389 0 4.241-.994t3.248-2.63q1.423-1.665 2.39-3.786.94-2.094 1.557-4.349.59-2.255.859-4.483t.268-4.053m65.313-26.415h10.738l-19.275 46.655q-3.302 8-7.382 15.812-4.054 7.839-8.778 15.06l-6.067-3.678q1.154-2.067 2.711-4.778t3.06-5.61q1.53-2.9 2.82-5.719t1.959-5.154l-23.194-52.588h15.543l15.731 35.864Zm62.494 36.106q0 3.49-1.02 6.2-.993 2.685-2.738 4.698-1.745 1.987-4.134 3.356-2.39 1.342-5.128 2.174t-5.718 1.182q-2.98.375-5.932.375-3.946 0-6.98-.51-3.033-.483-5.771-1.61-2.765-1.128-5.503-2.926-2.712-1.799-6.067-4.35l9.046-7.408q1.235 2.335 3.275 4.241t4.242 3.302q2.201 1.37 4.268 2.094 2.067.752 3.356.752 1.073 0 2.389-.081 1.342-.054 2.711-.268t2.711-.618q1.343-.43 2.363-1.127 1.047-.725 1.664-1.799t.617-2.577q0-1.584-.805-2.738-.805-1.181-2.094-2.04-1.288-.886-2.926-1.477-1.664-.59-3.329-1.047-1.69-.483-3.248-.805-1.557-.35-2.711-.671-2.12-.59-4.456-1.235-2.336-.617-4.644-1.423-2.282-.778-4.376-1.906-2.094-1.1-3.678-2.63t-2.523-3.625-.94-4.885q0-5.154 2.04-8.617t5.396-5.557 7.624-2.953q4.268-.886 8.671-.886 3.033 0 6.389.617t6.523 1.853q3.168 1.208 5.933 2.953 2.738 1.745 4.59 4l-9.046 7.435q-1.02-2.765-2.658-4.724-1.61-1.987-3.517-3.248t-3.919-1.853q-1.986-.59-3.678-.59-1.664 0-3.731.134t-3.892.778q-1.799.645-3.06 1.96-1.262 1.289-1.262 3.597 0 1.665.751 2.819.752 1.181 1.987 2.013 1.261.86 2.845 1.423 1.584.59 3.222 1.02 1.664.43 3.22.752t2.793.698q2.12.59 4.483 1.208t4.67 1.423q2.283.805 4.43 1.879 2.12 1.1 3.732 2.657t2.577 3.651.966 4.94m55.649-11.893v28.831h-18.228v-66.118h47.488v8.43h-29.26v20.455h22.603v8.402Zm80.185-19.516-8.725 14.443q-.564-1.826-1.423-4.107-.886-2.31-2.174-4.296-1.289-2.013-3.06-3.355-1.799-1.37-4.134-1.37-2.175 0-3.759 1.101t-2.684 2.873-1.799 4q-.725 2.228-1.1 4.51-.403 2.254-.537 4.348t-.134 3.597v26.603h-15.57v-53.044h5.96l6.308 12.348q1.288-2.98 2.926-5.476 1.664-2.497 3.812-4.322 2.147-1.799 4.885-2.819t6.175-1.02q1.798 0 4 .295 2.2.322 4.321 1.02 2.121.725 3.893 1.853 1.798 1.154 2.819 2.818m17.851 23.167q2.846.645 5.691 1.02t5.745.376q3.033 0 5.637-.59 2.577-.564 4.483-1.906 1.906-1.37 3.007-3.624t1.1-5.584q0-2.711-.724-4.966t-2.175-3.866-3.57-2.496-4.913-.886q-2.603 0-4.697.966-2.094.94-3.678 2.577t-2.711 3.785q-1.128 2.175-1.853 4.51-.751 2.336-1.073 4.725t-.323 4.51v.724q0 .376.054.725m38.254-10.47q0 3.276-1.047 5.826-1.074 2.55-2.873 4.483-1.825 1.906-4.214 3.248t-5.1 2.175q-2.712.859-5.584 1.235-2.846.349-5.557.349-3.463 0-6.819-.484-3.328-.483-6.603-1.53.51 3.034 1.61 5.772t2.953 4.778q1.826 2.04 4.51 3.222 2.684 1.208 6.362 1.208 2.443 0 4.644-.752 2.202-.725 4.027-2.067 1.852-1.316 3.248-3.168 1.396-1.825 2.255-4.08l6.711 2.47q-1.503 3.65-4.16 6.281-2.631 2.63-5.96 4.349-3.329 1.745-7.06 2.55-3.759.832-7.436.832-6.04 0-11.194-2.04t-8.86-5.718q-3.73-3.677-5.824-8.778-2.121-5.074-2.121-11.14t2.12-11.168q2.094-5.1 5.826-8.778 3.704-3.65 8.859-5.718 5.154-2.04 11.194-2.04 2.953 0 6.013.43 3.087.402 5.986 1.288 2.9.913 5.45 2.336 2.577 1.422 4.483 3.516 1.906 2.067 3.033 4.832t1.128 6.282m55.326 18.71q0 3.49-.993 6.202-1.02 2.684-2.765 4.697-1.745 1.987-4.134 3.356-2.39 1.342-5.127 2.174t-5.718 1.182q-2.98.375-5.906.375-3.973 0-6.98-.51-3.033-.483-5.798-1.61t-5.476-2.926q-2.738-1.799-6.094-4.35l9.047-7.408q1.234 2.335 3.275 4.241t4.241 3.302q2.228 1.37 4.295 2.094 2.067.752 3.329.752 1.074 0 2.39-.081 1.341-.054 2.71-.268 1.396-.215 2.712-.618 1.342-.43 2.362-1.127 1.047-.725 1.664-1.799t.618-2.577q0-1.584-.805-2.738-.806-1.181-2.094-2.04-1.289-.886-2.926-1.477-1.665-.59-3.33-1.047-1.69-.483-3.247-.805-1.557-.35-2.712-.671-2.094-.59-4.456-1.235-2.335-.617-4.617-1.423-2.309-.778-4.403-1.906-2.094-1.1-3.677-2.63t-2.524-3.625-.94-4.885q0-5.154 2.04-8.617t5.397-5.557 7.624-2.953q4.268-.886 8.697-.886 3.007 0 6.362.617t6.524 1.853q3.167 1.208 5.932 2.953t4.59 4l-9.046 7.435q-1.02-2.765-2.63-4.724-1.638-1.987-3.544-3.248t-3.92-1.853q-1.986-.59-3.677-.59-1.665 0-3.732.134t-3.865.778q-1.826.645-3.087 1.96-1.262 1.289-1.262 3.597 0 1.665.752 2.819.751 1.181 2.013 2.013 1.235.86 2.819 1.423 1.583.59 3.22 1.02 1.665.43 3.222.752t2.819.698q2.094.59 4.456 1.208t4.671 1.423q2.282.805 4.43 1.879 2.147 1.1 3.73 2.657 1.612 1.557 2.578 3.651t.966 4.94m64.025-13.476q0 5.395-1.316 11.22t-3.65 11.436q-2.336 5.584-5.611 10.523-3.248 4.94-7.168 8.537l-5.825-3.168q1.235-2.308 2.336-5.154t2.013-6.04q.886-3.194 1.61-6.577.699-3.409 1.182-6.738t.725-6.47q.268-3.14.268-5.851 0-1.799-.134-3.84t-.59-4.08q-.43-2.04-1.155-3.946-.752-1.879-1.96-3.302t-2.926-2.281q-1.745-.886-4.08-.886-2.282 0-4.08 1.047-1.8 1.02-3.168 2.711-1.37 1.664-2.363 3.812-.993 2.174-1.61 4.456-.618 2.255-.886 4.456-.295 2.202-.295 3.946v26.603h-15.57v-72.56h15.543v27.327q2.98-4.375 7.301-6.738 4.35-2.362 9.638-2.362 5.503 0 9.583 1.799 4.107 1.798 6.792 4.993 2.711 3.167 4.053 7.57 1.343 4.376 1.343 9.557" font-family="Aclonica" font-size="35.032"/><path fill="transparent" stroke="transparent" stroke-width="2.788" d="M250 196.561h1500V1303.44H250z"/></g></svg>