<?xml version="1.0" standalone="no"?>
<!DOCTYPE svg PUBLIC "-//W3C//DTD SVG 20010904//EN"
 "http://www.w3.org/TR/2001/REC-SVG-20010904/DTD/svg10.dtd">
<svg version="1.0" xmlns="http://www.w3.org/2000/svg"
 width="300.000000pt" height="262.000000pt" viewBox="0 0 300.000000 262.000000"
 preserveAspectRatio="xMidYMid meet">
<metadata>
Created by potrace 1.10, written by Peter Selinger 2001-2011
</metadata>
<g transform="translate(0.000000,262.000000) scale(0.100000,-0.100000)"
fill="#000000" stroke="none">
<path d="M1665 2560 c-32 -13 -75 -64 -85 -101 -6 -18 -10 -80 -10 -136 l0
-103 35 0 35 0 0 113 c0 84 4 118 15 133 13 17 14 12 15 -56 1 -41 7 -93 14
-115 10 -35 9 -49 -11 -113 -13 -40 -23 -78 -23 -85 0 -14 61 -77 74 -77 4 0
6 7 2 15 -4 10 5 22 27 35 17 11 35 20 39 20 4 0 13 -18 19 -40 11 -38 14 -40
51 -40 21 0 38 2 38 4 0 2 -6 19 -14 37 -28 68 -28 77 -6 89 11 6 80 12 155
13 153 2 141 11 126 -90 l-7 -53 38 0 38 0 0 44 c0 56 8 76 26 69 10 -3 14
-22 14 -59 l0 -54 35 0 35 0 0 53 c0 66 19 87 76 87 32 0 46 -6 70 -31 16 -17
44 -39 62 -51 30 -18 35 -19 75 -6 l42 15 3 135 c3 157 3 158 -84 183 -44 13
-78 34 -150 96 l-94 79 -328 -1 c-180 0 -336 -4 -347 -9z m735 -130 c71 -60
106 -83 147 -95 l53 -16 0 -99 c0 -60 -4 -100 -10 -100 -13 0 -90 77 -90 90 0
6 -33 10 -79 10 -74 0 -81 -2 -100 -26 l-20 -25 -38 25 c-37 25 -42 26 -203
26 l-165 0 -82 -45 c-46 -24 -83 -43 -83 -41 0 2 9 29 20 61 18 53 19 62 5
109 -11 40 -20 153 -16 199 1 4 128 7 284 7 l283 0 94 -80z"/>
<path d="M305 2061 c-94 -43 -115 -95 -115 -280 0 -130 -2 -143 -25 -187 -42
-79 -27 -194 34 -248 21 -19 21 -19 42 0 63 57 78 171 33 254 -25 46 -26 53
-22 186 2 101 7 145 18 162 8 12 17 22 20 22 3 0 5 -64 5 -143 0 -126 3 -153
29 -243 l29 -101 -42 -124 -41 -124 0 -193 0 -192 90 0 90 0 0 160 0 159 30
16 c16 8 31 15 33 15 2 0 30 -72 62 -160 l58 -160 93 0 c52 0 94 2 94 4 0 3
-22 67 -50 144 -27 77 -50 143 -50 147 0 4 20 36 46 71 l45 64 205 0 c112 0
204 -3 204 -7 0 -5 -31 -101 -68 -215 l-68 -208 96 0 96 0 39 128 c21 70 41
130 45 135 3 4 4 -60 2 -143 l-4 -150 96 0 96 0 0 181 0 180 42 50 41 49 96 0
96 0 43 -50 c40 -46 148 -130 182 -142 8 -3 44 4 80 16 l65 21 -2 45 c-2 25
-4 113 -6 195 -2 90 -8 159 -15 172 -10 19 -9 24 7 33 43 22 34 82 -13 94 -22
5 -24 9 -16 31 7 18 5 29 -9 46 -17 22 -21 22 -89 11 -120 -20 -108 -25 -287
128 -90 77 -180 147 -199 155 -30 13 -128 15 -628 15 -555 0 -596 -2 -633 -19z
m35 -39 c0 -5 -6 -17 -14 -28 -12 -16 -17 -17 -28 -6 -11 11 -10 16 6 28 22
16 36 18 36 6z m1247 -51 c26 -21 109 -91 183 -154 l134 -116 98 -28 c54 -15
98 -31 98 -34 0 -3 -9 -10 -20 -15 -20 -9 -20 -10 7 -49 26 -38 27 -46 28
-170 1 -71 5 -147 9 -167 8 -36 8 -37 -28 -43 -32 -6 -43 -2 -92 35 -30 23
-74 66 -97 96 l-42 54 -135 -1 -135 0 -57 -71 -58 -70 0 -159 c0 -152 -1 -159
-20 -159 -19 0 -20 7 -20 165 l0 166 -44 65 -44 65 -321 -1 -322 -1 -164 -82
-165 -82 0 -147 c0 -141 -1 -148 -20 -148 -19 0 -20 7 -20 154 l0 155 44 125
44 126 -30 98 c-26 82 -31 119 -35 239 -3 79 -2 154 1 168 l6 25 584 0 584 0
49 -39z m523 -254 c0 -13 9 -32 20 -42 22 -20 23 -56 3 -62 -7 -3 -10 3 -6 15
3 13 -6 28 -27 45 -17 15 -35 27 -40 27 -5 0 -21 5 -37 11 -26 10 -27 12 -8
19 11 5 37 9 58 9 32 1 37 -2 37 -22z m-1871 -217 c-1 -48 -13 -78 -24 -60
-11 17 -11 92 0 109 12 20 25 -7 24 -49z m450 -246 l-43 -58 38 -111 c21 -60
41 -116 43 -122 3 -8 -4 -13 -18 -13 -22 0 -29 14 -74 138 -27 75 -50 141 -50
145 0 8 138 86 143 81 2 -1 -15 -29 -39 -60z m638 44 c8 -18 -1 -56 -44 -185
-47 -139 -58 -163 -75 -163 -17 0 -19 4 -13 28 17 69 108 342 115 342 4 0 11
-10 17 -22z m67 -54 c3 -9 6 -35 6 -60 0 -43 0 -43 -25 -32 -28 12 -31 29 -14
77 12 34 24 40 33 15z"/>
<path d="M1845 1915 l40 -34 453 -1 452 0 0 35 0 35 -492 0 -493 0 40 -35z"/>
<path d="M2430 1695 l0 -35 180 0 180 0 0 35 0 35 -180 0 -180 0 0 -35z"/>
<path d="M2300 1465 l0 -35 155 0 155 0 0 35 0 35 -155 0 -155 0 0 -35z"/>
<path d="M2710 1465 c0 -34 1 -35 40 -35 39 0 40 1 40 35 0 34 -1 35 -40 35
-39 0 -40 -1 -40 -35z"/>
<path d="M1960 995 c-33 -42 -37 -44 -87 -45 l-53 0 0 -35 0 -35 65 0 c59 0
68 3 91 28 l24 27 24 -29 c22 -27 25 -28 60 -16 27 9 45 9 69 1 26 -10 37 -9
63 5 30 16 34 16 58 1 36 -24 206 -24 242 0 24 15 28 15 58 -1 26 -14 37 -15
64 -5 23 8 40 8 63 0 18 -6 45 -11 60 -11 27 0 29 3 29 39 0 34 -2 38 -20 34
-11 -3 -40 0 -63 6 -28 8 -51 9 -67 3 -19 -7 -33 -5 -61 11 l-36 21 -35 -22
c-51 -31 -173 -31 -227 0 l-38 22 -34 -21 c-26 -16 -40 -19 -58 -12 -13 5 -38
7 -55 4 -27 -4 -35 0 -61 35 -16 21 -32 39 -35 40 -3 0 -21 -20 -40 -45z"/>
<path d="M2300 495 c-18 -22 -4 -64 24 -71 50 -12 88 40 54 74 -17 17 -63 15
-78 -3z"/>
<path d="M50 490 c0 -5 7 -10 15 -10 13 0 15 -23 15 -150 0 -127 -2 -150 -15
-150 -8 0 -15 -4 -15 -10 0 -6 50 -10 130 -10 l130 0 0 60 c0 33 -2 60 -5 60
-2 0 -12 -14 -20 -31 -25 -46 -52 -69 -85 -69 l-30 0 0 150 0 150 30 0 c17 0
30 5 30 10 0 6 -37 10 -90 10 -53 0 -90 -4 -90 -10z"/>
<path d="M1120 490 c0 -5 7 -10 15 -10 13 0 15 -23 15 -150 0 -127 -2 -150
-15 -150 -8 0 -15 -4 -15 -10 0 -6 38 -10 95 -10 57 0 95 4 95 10 0 6 -13 10
-30 10 l-30 0 0 71 c0 67 1 70 23 67 13 -2 28 -15 37 -35 8 -18 18 -33 23 -33
4 0 7 34 7 76 0 47 -4 73 -10 69 -5 -3 -10 -12 -10 -20 0 -16 -38 -45 -57 -45
-9 0 -13 21 -13 75 l0 75 30 0 c33 0 80 -38 80 -64 0 -8 5 -18 10 -21 6 -4 10
15 10 49 l0 56 -130 0 c-80 0 -130 -4 -130 -10z"/>
<path d="M2876 444 c-9 -8 -16 -23 -16 -32 0 -14 -10 -17 -50 -18 -38 0 -56
-6 -75 -24 -34 -32 -34 -81 0 -108 l24 -19 -24 -22 c-51 -43 -23 -81 59 -81
55 0 96 -15 96 -34 0 -27 -30 -46 -74 -46 -47 0 -69 17 -64 47 2 14 -3 18 -27
18 -23 0 -31 -5 -33 -21 -4 -31 21 -52 72 -59 106 -16 176 22 176 94 0 55 -25
71 -113 71 -51 0 -68 3 -64 13 4 11 15 14 80 16 61 2 87 75 46 130 -17 23 -19
32 -10 50 15 27 21 27 18 -1 -2 -18 3 -23 23 -23 28 0 39 27 20 50 -16 19 -45
19 -64 -1z m-46 -130 c0 -57 -2 -65 -17 -62 -14 2 -19 15 -21 52 -4 57 2 76
23 76 12 0 15 -13 15 -66z"/>
<path d="M395 386 c-59 -27 -80 -73 -65 -141 13 -59 49 -85 116 -85 45 0 59 4
79 25 14 13 25 32 25 42 -1 16 -2 16 -12 -2 -16 -30 -39 -45 -70 -45 -32 0
-48 24 -48 72 l0 33 65 -3 65 -4 0 31 c0 66 -86 109 -155 77z m65 -15 c0 -5 3
-23 6 -40 6 -28 4 -31 -20 -31 -23 0 -26 4 -26 33 0 19 3 37 7 40 9 10 33 9
33 -2z"/>
<path d="M843 385 c-57 -24 -55 -85 2 -85 38 0 56 30 34 56 -10 13 -10 17 2
24 20 13 28 1 35 -52 l6 -45 -48 -8 c-77 -11 -102 -45 -68 -93 17 -25 81 -31
102 -10 9 9 15 9 24 0 21 -21 85 -15 102 10 18 25 22 63 6 53 -5 -3 -10 -15
-10 -26 0 -12 -5 -19 -12 -17 -8 3 -11 24 -9 61 4 86 -12 124 -57 137 -48 13
-70 12 -109 -5z m77 -146 c0 -28 -19 -61 -31 -54 -12 8 -12 41 2 66 12 23 29
16 29 -12z"/>
<path d="M1422 385 c-29 -13 -33 -19 -30 -47 3 -30 6 -33 38 -33 29 0 36 4 38
24 2 13 -2 28 -10 32 -11 7 -10 11 2 19 21 14 40 -15 40 -61 0 -36 0 -36 -52
-45 -41 -7 -55 -15 -67 -35 -13 -24 -13 -29 2 -53 14 -20 26 -26 55 -26 21 0
43 5 50 12 9 9 15 9 24 0 7 -7 29 -12 49 -12 41 0 70 27 68 65 0 16 -3 14 -11
-7 -17 -47 -28 -31 -28 41 0 89 -10 116 -51 130 -42 15 -77 13 -117 -4z m78
-144 c0 -35 -9 -61 -21 -61 -10 0 -12 73 -2 83 14 15 23 6 23 -22z"/>
<path d="M1780 393 c-8 -3 -21 -12 -27 -21 -12 -14 -13 -14 -13 1 0 14 -10 17
-62 16 -35 -1 -55 -3 -45 -6 15 -4 17 -18 17 -108 0 -90 -2 -104 -17 -108 -10
-3 19 -5 65 -6 49 -1 82 3 82 9 0 6 -9 10 -20 10 -18 0 -20 7 -20 71 0 67 11
106 34 121 18 12 30 -5 12 -18 -12 -8 -16 -19 -11 -34 5 -17 13 -20 38 -18 29
3 32 6 35 41 2 24 8 37 18 37 11 0 14 -20 14 -100 0 -82 -3 -100 -15 -100 -8
0 -15 -4 -15 -10 0 -6 30 -10 71 -10 61 0 70 2 59 15 -7 9 -11 44 -10 97 3
131 10 119 -67 118 -38 -1 -77 1 -88 4 -11 3 -27 2 -35 -1z"/>
<path d="M2003 390 c-27 -11 -30 -28 -5 -26 15 1 17 -11 20 -91 2 -60 -1 -93
-8 -93 -5 0 -10 -4 -10 -10 0 -6 98 -10 275 -10 177 0 275 4 275 10 0 6 -4 10
-10 10 -14 0 -13 133 2 165 6 14 17 25 25 25 18 0 19 -196 1 -203 -7 -3 21 -6
62 -6 41 0 70 3 64 7 -7 4 -13 47 -16 100 -5 109 -16 127 -79 127 -29 0 -45
-6 -55 -20 -12 -16 -14 -17 -14 -2 0 14 -10 17 -62 16 -35 -1 -55 -3 -45 -6
15 -4 17 -18 17 -106 l0 -102 -25 0 -25 0 0 108 0 107 -67 -1 c-52 0 -63 -2
-45 -9 22 -9 23 -14 20 -107 -3 -97 -3 -97 -28 -98 -25 0 -25 2 -30 95 -3 52
-8 100 -13 107 -15 23 -68 26 -96 5 -26 -19 -27 -19 -50 -1 -25 21 -44 23 -78
9z m147 -120 c0 -93 -1 -100 -20 -100 -18 0 -20 7 -20 88 0 82 8 112 32 112 4
0 8 -45 8 -100z"/>
<path d="M572 338 l-1 -53 19 42 c14 32 25 43 50 48 17 4 33 5 35 3 2 -2 -21
-48 -51 -102 -30 -54 -54 -103 -54 -107 0 -5 44 -9 99 -9 l98 0 7 51 c4 28 5
53 3 56 -3 2 -13 -13 -23 -34 -17 -34 -68 -72 -80 -60 -3 2 20 50 51 106 30
56 55 104 55 106 0 3 -46 5 -103 5 l-103 0 -2 -52z"/>
</g>
</svg>
