 <svg  version="1.0" xmlns="http://www.w3.org/2000/svg"  width="300.000000pt" height="193.000000pt" viewBox="0 0 300.000000 193.000000"  preserveAspectRatio="xMidYMid meet">  <g transform="translate(0.000000,193.000000) scale(0.100000,-0.100000)" fill="#00ff1e" stroke="none"> <path d="M1298 1584 c-21 -11 -28 -22 -28 -45 0 -30 -1 -31 -39 -24 -48 8 -106 -15 -116 -45 -11 -36 21 -102 65 -132 32 -22 40 -34 40 -58 0 -32 38 -117 64 -143 12 -12 13 -22 5 -48 -6 -19 -17 -59 -25 -89 l-15 -55 27 -23 c23 -21 28 -21 48 -9 11 8 31 43 44 78 13 35 25 65 27 67 2 2 49 4 105 5 117 1 120 -1 141 -84 10 -38 19 -51 42 -60 25 -11 31 -9 52 12 l24 24 -24 75 c-14 41 -25 78 -25 82 0 5 12 27 27 51 30 45 53 102 53 129 0 9 20 33 44 53 107 87 68 191 -62 166 -41 -8 -43 -7 -38 12 7 27 -20 77 -42 77 -9 0 -29 -8 -44 -18 -37 -24 -254 -23 -292 2 -30 19 -24 19 -58 0z m412 -38 c0 -12 -7 -32 -16 -44 -15 -21 -15 -25 1 -42 17 -19 18 -19 42 0 54 42 133 33 133 -16 0 -32 -59 -94 -89 -94 -18 0 -21 -6 -21 -42 -1 -55 -29 -117 -70 -151 -23 -20 -29 -31 -22 -40 12 -13 65 -167 60 -172 -2 -1 -13 -5 -24 -9 -19 -6 -23 -2 -29 30 -3 21 -16 62 -27 91 -20 53 -20 54 -51 46 -41 -10 -143 -10 -184 0 -31 8 -33 6 -48 -30 -9 -21 -22 -60 -29 -88 -10 -39 -18 -51 -36 -53 -21 -4 -22 -1 -15 35 3 21 18 66 32 101 l25 63 -31 28 c-40 37 -61 88 -61 146 0 39 -3 45 -21 45 -30 0 -89 62 -89 94 0 36 40 52 91 37 20 -6 42 -18 48 -25 11 -13 15 -12 32 5 18 18 18 22 4 42 -19 27 -20 67 0 67 8 0 26 -12 40 -26 20 -20 32 -24 48 -19 41 14 141 17 180 5 38 -11 41 -10 70 18 33 33 57 32 57 -2z"/> <path d="M1429 1486 c-57 -20 -96 -53 -118 -99 -36 -74 -23 -144 37 -200 l30 -29 14 28 c34 70 200 65 226 -7 8 -20 8 -20 35 1 39 31 59 76 59 130 0 132 -148 225 -283 176z m143 -35 c85 -36 119 -94 104 -176 -7 -37 -35 -73 -45 -57 -15 23 -74 42 -129 42 -46 0 -67 -5 -96 -25 l-36 -24 -19 21 c-37 38 -38 93 -3 151 20 35 79 80 93 71 5 -3 9 -2 9 3 0 16 79 13 122 -6z"/> <path d="M1575 1398 c-26 -15 -35 -28 -35 -55 0 -48 61 -71 94 -34 15 16 20 82 6 78 -3 -1 -14 4 -25 10 -15 8 -26 8 -40 1z m49 -40 c8 -14 7 -21 -6 -34 -30 -30 -75 9 -48 42 16 18 39 15 54 -8z"/> <path d="M1372 1388 c-18 -18 -14 -63 7 -82 26 -24 62 -17 80 15 13 24 13 29 -2 53 -19 28 -63 36 -85 14z m67 -22 c16 -19 -4 -59 -26 -54 -26 5 -39 34 -24 52 17 20 35 20 50 2z"/> <path d="M1185 1440 c-7 -12 43 -50 66 -50 37 0 16 30 -33 49 -16 6 -30 6 -33 1z"/> <path d="M1795 1442 c-22 -4 -55 -30 -55 -44 0 -15 37 -9 60 10 27 22 24 39 -5 34z"/> <path d="M1437 1194 c-63 -34 -2 -70 100 -58 56 6 67 13 57 37 -13 35 -108 47 -157 21z m49 -15 c10 -17 -13 -36 -27 -22 -12 12 -4 33 11 33 5 0 12 -5 16 -11z m70 0 c10 -17 -13 -36 -27 -22 -12 12 -4 33 11 33 5 0 12 -5 16 -11z"/> <path d="M580 842 c-21 -17 -22 -26 -23 -132 0 -104 2 -115 21 -131 26 -20 123 -23 162 -4 19 9 30 9 48 0 12 -7 35 -10 50 -7 15 2 42 4 60 3 33 -2 115 -2 155 -2 12 1 48 0 80 -2 48 -2 61 1 78 19 16 18 19 30 15 75 -3 30 -14 65 -25 79 -16 21 -26 25 -67 23 -27 -1 -59 -1 -71 -1 -37 1 -152 0 -165 -1 -7 0 -32 2 -55 5 -50 7 -93 -18 -113 -66 -10 -25 -18 -30 -39 -28 -25 3 -26 6 -32 82 -4 61 -9 81 -24 92 -24 18 -28 18 -55 -4z m50 -109 l0 -98 52 0 c46 0 53 -3 53 -20 0 -18 -8 -20 -72 -23 l-73 -3 0 121 c0 113 1 120 20 120 19 0 20 -7 20 -97z m236 -1 c18 -12 36 -53 30 -69 -5 -11 -18 -14 -51 -11 -27 2 -44 -1 -42 -7 2 -5 20 -10 40 -10 44 0 56 -11 31 -30 -38 -29 -88 -15 -112 32 -17 31 -15 47 9 77 20 26 69 36 95 18z m174 0 c0 -5 -14 -28 -30 -50 -31 -43 -31 -45 8 -42 17 1 22 -4 22 -24 0 -25 -2 -26 -60 -26 -35 0 -60 4 -60 11 0 5 11 27 25 47 14 20 25 40 25 44 0 5 -11 8 -25 8 -18 0 -25 5 -25 20 0 18 7 20 60 20 33 0 60 -4 60 -8z m139 -6 c7 -8 14 -42 16 -75 3 -47 1 -61 -10 -61 -8 0 -17 5 -21 11 -4 8 -9 8 -17 0 -19 -19 -56 -12 -73 14 -16 24 -15 27 1 45 10 11 33 23 52 26 24 5 31 10 24 17 -7 7 -18 7 -36 -1 -33 -15 -32 -15 -39 5 -4 9 -1 20 6 25 21 13 85 9 97 -6z"/> <path d="M813 703 c-22 -8 -14 -23 12 -23 14 0 25 4 25 9 0 11 -21 19 -37 14z"/> <path d="M1123 653 c-7 -2 -13 -9 -13 -15 0 -12 41 -6 41 7 1 12 -11 15 -28 8z"/> <path d="M1294 827 c-19 -28 -21 -44 -19 -123 3 -98 16 -134 51 -134 24 0 54 29 54 52 0 8 9 23 20 33 20 18 20 17 20 -11 1 -55 40 -82 110 -77 25 2 64 3 87 3 46 0 73 25 73 67 0 34 17 28 24 -8 10 -52 58 -75 89 -44 13 13 18 12 39 -5 21 -16 28 -17 44 -6 21 15 54 17 54 4 0 -4 19 -8 43 -7 49 0 69 0 117 0 19 0 45 5 58 11 17 9 25 9 30 1 4 -6 16 -12 26 -14 12 -3 23 -16 28 -36 12 -48 58 -76 109 -68 46 8 99 48 99 76 0 11 -6 32 -14 47 -8 17 -10 35 -5 47 4 11 8 39 8 62 1 32 -4 45 -21 57 -29 21 -93 20 -127 0 -25 -15 -30 -15 -59 0 -35 18 -104 21 -132 6 -13 -7 -21 -7 -26 2 -4 6 -2 14 4 16 18 6 14 37 -6 55 -41 37 -78 9 -67 -49 6 -35 5 -36 -17 -29 -40 13 -350 16 -381 3 -21 -8 -31 -8 -40 1 -6 6 -28 11 -49 11 -36 0 -38 2 -32 24 11 44 -25 66 -103 66 -66 0 -69 -1 -89 -33z m166 -21 c0 -24 -2 -24 -55 -19 l-55 6 0 -32 c0 -28 3 -31 30 -31 23 0 30 -4 30 -20 0 -16 -7 -20 -30 -20 -29 0 -30 -1 -30 -50 0 -43 -3 -50 -20 -50 -19 0 -20 7 -20 120 l0 120 75 0 c73 0 75 -1 75 -24z m608 1 c4 -20 -25 -34 -40 -19 -15 15 -1 44 19 40 10 -2 19 -11 21 -21z m-498 -86 c5 -11 10 -44 10 -74 l0 -55 -55 2 c-61 2 -78 13 -73 47 2 17 14 28 47 40 24 9 39 19 33 23 -6 3 -22 2 -37 -4 -20 -8 -27 -7 -32 6 -8 21 14 34 59 34 27 0 40 -5 48 -19z m151 4 c1 -10 -13 -20 -43 -29 -14 -4 -18 -16 -18 -56 0 -47 -2 -50 -25 -50 -24 0 -25 2 -25 74 l0 74 55 -1 c30 -1 55 -6 56 -12z m147 3 c9 -8 16 -8 24 0 7 7 24 12 39 12 39 0 59 -33 59 -98 0 -50 -2 -53 -22 -50 -20 3 -23 9 -23 53 0 47 -2 50 -25 50 -23 0 -25 -4 -28 -52 -3 -44 -6 -53 -22 -53 -16 0 -19 9 -22 53 -3 48 -5 52 -28 52 -23 0 -25 -4 -28 -52 -3 -45 -6 -53 -23 -53 -17 0 -19 7 -19 73 l0 74 52 1 c29 0 58 -4 66 -10z m195 -63 c1 -63 -1 -70 -19 -70 -17 0 -19 8 -22 73 -3 70 -2 73 19 70 19 -3 21 -9 22 -73z m162 59 c10 -10 15 -35 15 -75 0 -52 -2 -59 -20 -59 -18 0 -20 7 -20 56 0 54 0 55 -27 52 -26 -3 -28 -7 -31 -55 -3 -45 -6 -53 -23 -53 -17 0 -19 7 -19 74 l0 74 55 1 c36 0 59 -5 70 -15z m190 7 c3 -5 1 -12 -5 -16 -5 -3 -7 -18 -4 -33 8 -42 -16 -67 -65 -66 -60 2 -50 -11 17 -22 55 -9 57 -10 60 -41 3 -27 -2 -34 -27 -47 -38 -20 -71 -20 -99 0 -24 17 -29 49 -9 58 8 3 7 8 -5 16 -22 13 -23 39 -4 46 10 4 13 15 9 40 -8 50 17 74 78 74 26 0 50 -4 54 -9z"/> <path d="M1504 645 c-18 -14 -18 -14 9 -15 17 0 27 5 27 15 0 19 -11 19 -36 0z"/> <path d="M2322 678 c4 -30 43 -33 43 -3 0 13 -8 21 -23 23 -20 3 -23 0 -20 -20z"/> <path d="M2314 558 c-3 -5 -2 -14 4 -20 12 -12 53 -7 52 7 -1 14 -49 25 -56 13z"/> </g> </svg> 