<?xml version="1.0" standalone="no"?>
<!DOCTYPE svg PUBLIC "-//W3C//DTD SVG 20010904//EN"
 "http://www.w3.org/TR/2001/REC-SVG-20010904/DTD/svg10.dtd">
<svg version="1.0" xmlns="http://www.w3.org/2000/svg"
 width="300.000000pt" height="193.000000pt" viewBox="0 0 300.000000 193.000000"
 preserveAspectRatio="xMidYMid meet">
<metadata>
Created by potrace 1.10, written by Peter Selinger 2001-2011
</metadata>
<g transform="translate(0.000000,193.000000) scale(0.100000,-0.100000)"
fill="#000000" stroke="none">
<path d="M1073 1705 c-68 -29 -122 -157 -95 -227 6 -17 10 -33 9 -35 -2 -1
-23 8 -48 20 -34 17 -61 22 -119 21 -79 0 -115 -13 -177 -63 -41 -33 -42 -62
-5 -122 59 -91 149 -149 249 -157 l63 -5 -6 -66 c-4 -44 0 -91 11 -141 10 -41
18 -97 20 -123 2 -27 6 -64 9 -83 5 -26 1 -44 -19 -77 -32 -56 -61 -139 -70
-205 l-7 -51 -106 -3 c-99 -3 -107 -4 -107 -23 0 -20 8 -20 781 -23 708 -2
782 -1 788 14 10 27 -3 34 -59 34 l-54 0 -11 55 c-6 30 -24 80 -40 111 l-28
57 19 36 c25 48 24 87 -6 140 -26 45 -33 95 -14 107 6 3 16 1 22 -5 6 -6 23
-11 39 -11 76 0 121 58 122 159 1 74 10 70 -95 52 -31 -5 -66 -14 -78 -20 -31
-17 -53 -67 -46 -101 4 -20 1 -37 -9 -52 -24 -33 -20 -96 9 -147 26 -45 30
-67 16 -89 -6 -10 -21 -1 -58 36 -38 38 -52 60 -57 90 -3 23 -2 43 3 46 24 15
44 221 26 269 -6 15 -1 17 41 17 71 0 141 28 199 82 68 62 103 126 89 165 -12
36 -101 90 -162 99 -60 9 -145 -11 -184 -44 l-31 -27 9 30 c5 17 9 58 9 92 0
52 -4 68 -30 104 -17 24 -45 52 -63 62 -30 18 -34 18 -57 3 -19 -12 -25 -25
-25 -52 0 -42 -12 -68 -53 -111 -29 -31 -31 -31 -58 -18 -26 14 -27 17 -17 46
9 25 8 34 -6 47 -26 26 -50 4 -54 -50 -3 -41 -7 -47 -42 -67 -22 -12 -40 -26
-40 -32 0 -14 73 -10 93 6 23 17 46 8 127 -46 116 -77 179 -179 200 -323 12
-76 7 -196 -7 -196 -3 0 -23 20 -45 45 -88 100 -291 160 -467 138 -149 -19
-282 -79 -330 -149 -13 -18 -27 -31 -32 -28 -15 9 -10 195 6 259 20 77 68 157
125 207 47 41 134 90 183 102 26 6 28 10 22 37 -7 29 -6 30 15 19 28 -15 62 6
80 49 17 41 34 28 26 -20 -7 -46 10 -53 45 -18 25 25 21 79 -8 111 -25 28 -53
18 -88 -32 -32 -44 -39 -48 -81 -35 -26 8 -58 -20 -51 -45 3 -12 -4 -22 -19
-29 -20 -9 -28 -6 -54 16 -39 32 -60 73 -60 115 0 56 -26 74 -77 53z m50 -152
c9 -17 27 -39 39 -48 l23 -16 -30 -22 c-16 -12 -42 -34 -58 -49 l-27 -27 -14
27 c-43 83 -38 166 12 219 l27 28 5 -40 c4 -22 14 -54 23 -72z m704 79 c46
-62 48 -135 6 -215 l-14 -28 -27 28 c-15 16 -40 38 -56 49 l-28 20 27 30 c32
34 55 83 55 119 0 33 11 32 37 -3z m-917 -217 c24 -8 63 -27 86 -42 l42 -27
-21 -31 c-11 -16 -22 -31 -23 -33 -1 -2 -19 8 -41 22 -60 39 -122 58 -170 51
-24 -3 -43 -9 -43 -13 0 -4 29 -16 65 -26 36 -10 85 -31 110 -47 25 -16 50
-29 55 -29 13 0 13 -7 0 -31 -20 -37 -130 -18 -213 37 -21 14 -51 46 -68 72
-28 45 -29 47 -11 65 45 44 155 59 232 32z m1255 -4 c66 -30 68 -39 27 -101
-44 -66 -118 -108 -205 -117 -50 -5 -55 -4 -62 16 -4 13 -5 24 -3 26 18 16
166 86 193 91 40 7 45 19 13 28 -47 12 -79 5 -154 -34 -43 -22 -78 -39 -79
-37 0 1 -9 14 -18 29 -16 26 -16 27 11 47 100 71 196 89 277 52z m-296 -28
c-13 -16 -25 -30 -26 -32 -2 -2 -6 -2 -9 2 -9 9 29 56 45 57 10 0 7 -9 -10
-27z m-230 -368 c135 -47 211 -122 219 -219 6 -71 -22 -131 -90 -190 -92 -80
-191 -116 -323 -116 -139 0 -240 36 -328 118 -161 151 -95 340 145 412 83 26
295 22 377 -5z m551 10 c0 -8 -8 -30 -17 -50 -28 -59 -87 -60 -107 -2 -15 41
15 67 76 67 35 0 48 -4 48 -15z m-183 -443 c20 -34 73 -170 73 -188 0 -2 -157
-4 -350 -4 -334 0 -350 1 -350 19 0 16 11 19 93 24 185 11 354 108 412 237
l19 43 39 -44 c21 -24 50 -63 64 -87z m-935 -4 c61 -60 153 -113 213 -123 68
-12 75 -15 75 -41 l0 -24 -206 0 -207 0 6 53 c4 43 52 187 62 187 2 0 27 -24
57 -52z"/>
<path d="M1973 1370 c-73 -42 -67 -47 9 -9 55 28 69 31 123 26 36 -3 52 -2 40
3 -46 19 -119 11 -172 -20z"/>
<path d="M1234 932 c-42 -28 -31 -89 20 -107 25 -8 31 -6 52 18 29 34 29 38 3
71 -20 25 -53 33 -75 18z"/>
<path d="M1587 922 c-40 -44 -2 -115 50 -96 15 5 34 21 42 35 13 24 13 29 -2
53 -21 31 -66 35 -90 8z"/>
<path d="M1060 744 c0 -6 15 -31 34 -56 136 -178 491 -200 664 -40 21 19 26
27 12 18 -121 -77 -154 -91 -265 -107 -166 -25 -355 48 -426 166 -11 16 -19
25 -19 19z"/>
<path d="M1555 710 c-41 -46 -160 -52 -215 -11 -36 26 -60 27 -60 2 0 -97 265
-110 326 -15 28 42 -16 63 -51 24z"/>
<path d="M1800 540 c0 -26 33 -71 62 -86 46 -24 122 -14 156 20 l27 26 -27 0
c-15 0 -29 -4 -32 -9 -10 -16 -67 -21 -99 -7 -18 7 -38 25 -46 39 -14 27 -41
37 -41 17z"/>
<path d="M1048 543 c25 -36 83 -83 125 -101 15 -6 27 -10 27 -8 0 1 -25 20
-55 41 -31 21 -59 43 -63 49 -4 6 -18 20 -31 31 l-25 20 22 -32z"/>
<path d="M1265 1440 c-3 -6 16 -32 43 -58 27 -27 55 -65 62 -86 13 -40 7 -124
-11 -159 -16 -28 -1 -34 24 -9 29 29 37 153 13 199 -35 69 -116 138 -131 113z"/>
<path d="M1154 1355 c-37 -36 -64 -69 -59 -73 4 -4 15 4 24 18 20 31 46 57 91
92 19 15 30 27 23 28 -6 0 -41 -29 -79 -65z"/>
<path d="M1632 1380 c-50 -12 -107 -54 -125 -93 -25 -53 -22 -120 7 -154 32
-37 40 -26 21 31 -26 75 -1 129 79 172 29 16 86 15 129 -2 25 -9 21 13 -5 30
-32 20 -67 26 -106 16z"/>
<path d="M1149 1261 c-42 -42 -41 -99 2 -135 41 -35 83 -34 120 3 43 43 37
102 -15 143 -32 27 -73 22 -107 -11z m77 -9 c35 -24 15 -76 -27 -70 -18 2 -25
10 -27 32 -5 37 25 58 54 38z"/>
<path d="M1638 1274 c-17 -9 -32 -28 -39 -53 -10 -34 -9 -44 8 -73 48 -82 163
-52 163 43 0 33 -6 47 -31 70 -34 32 -60 36 -101 13z m66 -27 c26 -19 18 -61
-12 -65 -44 -7 -67 32 -36 62 19 19 25 20 48 3z"/>
</g>
</svg>
